<svg width="18" height="18" viewBox="0 0 18 18" fill="none" xmlns="http://www.w3.org/2000/svg">
<g clip-path="url(#clip0_2_120)">
<path d="M14.8477 16.9474L11.6982 13.8354C11.2608 13.9728 10.8171 14.0759 10.3672 14.1447C9.91722 14.2134 9.46107 14.2478 8.99861 14.2478C7.32388 14.2478 5.79286 13.7979 4.40558 12.898C3.01829 11.9981 1.93096 10.8108 1.14359 9.33605C1.0811 9.22357 1.03423 9.10794 1.00298 8.98923C0.971736 8.87052 0.956116 8.74867 0.956116 8.62366C0.956116 8.49866 0.971736 8.3768 1.00298 8.2581C1.03423 8.13939 1.0811 8.02376 1.14359 7.91127C1.41855 7.42384 1.71225 6.94892 2.0247 6.48649C2.33715 6.02406 2.69959 5.61162 3.11203 5.24918L1.04985 3.14951L2.09969 2.09967L15.8975 15.8975L14.8477 16.9474ZM8.99861 11.9981C9.13607 11.9981 9.2673 11.9919 9.3923 11.9794C9.51731 11.9669 9.64224 11.9419 9.76724 11.9044L5.71787 7.85503C5.68038 7.98004 5.65539 8.10497 5.64289 8.22997C5.63039 8.35498 5.62414 8.48621 5.62414 8.62366C5.62414 9.56102 5.95221 10.3578 6.60836 11.0139C7.26451 11.6701 8.06126 11.9981 8.99861 11.9981ZM14.4728 12.3356L12.0919 9.97345C12.1794 9.76101 12.2481 9.54227 12.2981 9.31731C12.3481 9.09234 12.3731 8.86115 12.3731 8.62366C12.3731 7.68631 12.045 6.88955 11.3889 6.2334C10.7327 5.57726 9.93597 5.24918 8.99861 5.24918C8.76113 5.24918 8.52994 5.27417 8.30497 5.32417C8.08001 5.37416 7.86127 5.44914 7.64882 5.54913L5.73662 3.63693C6.26154 3.42446 6.79583 3.26511 7.3395 3.15888C7.88316 3.05264 8.4362 2.99953 8.99861 2.99953C10.6733 2.99953 12.2075 3.45258 13.601 4.35869C14.9945 5.2648 16.085 6.45524 16.8724 7.93002C16.9349 8.02998 16.9817 8.13939 17.013 8.2581C17.0443 8.3768 17.0599 8.49866 17.0599 8.62366C17.0599 8.74867 17.0473 8.87052 17.0224 8.98923C16.9974 9.10794 16.9536 9.21735 16.8911 9.31731C16.5912 9.90469 16.2444 10.4547 15.8507 10.967C15.457 11.4794 14.9977 11.9357 14.4728 12.3356ZM11.0046 8.88612L8.7549 6.63647C9.07983 6.57397 9.39545 6.59897 9.70163 6.71145C10.0078 6.82394 10.2672 6.99891 10.4796 7.23637C10.6921 7.46134 10.8452 7.71758 10.9389 8.00501C11.0327 8.29244 11.0546 8.58617 11.0046 8.88612Z" fill="#797F88"/>
</g>
<defs>
<clipPath id="clip0_2_120">
<rect width="17.9972" height="17.9972" fill="white"/>
</clipPath>
</defs>
</svg>
